<svg width="532" height="128" viewBox="0 0 532 128" fill="none" xmlns="http://www.w3.org/2000/svg">
<path d="M131.72 111V77.68H141.08L145.56 61.6L150.64 47H160.12L140.52 97.28V111H131.72ZM152.04 111L146.32 91.16L151.36 78.88L160.84 111H152.04ZM131.72 74.64V47H140.92L140.8 61.68L139.24 74.64H131.72ZM171.792 111V47H180.432V111H171.792ZM205.086 111.64C200.979 111.373 198.032 110.2 196.246 108.12C194.486 106.04 193.526 102.787 193.366 98.36C193.339 97.1067 193.312 95.8933 193.286 94.72C193.286 93.52 193.299 92.32 193.326 91.12C193.379 89.92 193.459 88.6933 193.566 87.44H201.726C201.619 89.5733 201.552 91.7067 201.526 93.84C201.526 95.9733 201.592 97.9867 201.726 99.88C201.806 101.133 202.112 102.133 202.646 102.88C203.179 103.627 203.992 104.12 205.086 104.36V111.64ZM208.846 111.6V104.32C209.832 104.053 210.566 103.56 211.046 102.84C211.526 102.093 211.819 101.107 211.926 99.88C212.006 98.68 212.059 97.56 212.086 96.52C212.112 95.48 212.112 94.4267 212.086 93.36C212.059 92.2933 212.006 91.12 211.926 89.84C211.819 88.2667 211.499 86.92 210.966 85.8C210.432 84.68 209.459 83.9333 208.046 83.56L202.686 82.2C200.286 81.5867 198.406 80.6933 197.046 79.52C195.686 78.32 194.712 76.8 194.126 74.96C193.539 73.12 193.206 70.92 193.126 68.36C193.099 66.92 193.086 65.4533 193.086 63.96C193.112 62.4667 193.139 60.9867 193.166 59.52C193.326 55.12 194.299 51.8933 196.086 49.84C197.872 47.7867 200.859 46.6267 205.046 46.36V53.64C204.006 53.88 203.232 54.3733 202.726 55.12C202.219 55.84 201.912 56.8133 201.806 58.04C201.672 59.7467 201.606 61.4667 201.606 63.2C201.632 64.9333 201.699 66.6533 201.806 68.36C201.912 70.0667 202.246 71.44 202.806 72.48C203.366 73.52 204.379 74.2267 205.846 74.6L210.686 75.76C213.219 76.3467 215.192 77.2667 216.606 78.52C218.019 79.7467 219.019 81.3067 219.606 83.2C220.192 85.0667 220.526 87.28 220.606 89.84C220.659 90.96 220.686 91.9733 220.686 92.88C220.686 93.7867 220.672 94.68 220.646 95.56C220.619 96.4133 220.592 97.3467 220.566 98.36C220.379 102.787 219.392 106.04 217.606 108.12C215.819 110.2 212.899 111.36 208.846 111.6ZM211.886 70.08C211.966 68.08 212.006 66.08 212.006 64.08C212.032 62.0533 212.006 60.04 211.926 58.04C211.899 56.84 211.619 55.88 211.086 55.16C210.579 54.44 209.819 53.9467 208.806 53.68V46.4C212.726 46.64 215.579 47.8 217.366 49.88C219.152 51.9333 220.139 55.16 220.326 59.56C220.379 60.8667 220.392 62.48 220.366 64.4C220.339 66.2933 220.286 68.1867 220.206 70.08H211.886ZM233.264 111V47H241.904V111H233.264ZM238.424 82.44V74.76H248.824L246.784 82.44H238.424ZM251.224 111V47H259.864V111H251.224ZM271.286 111L279.126 47H294.206L295.166 54.68H285.566L284.286 74.4L282.766 87.36H288.366L286.366 95.04H282.206L280.166 111H271.286ZM293.046 111L289.086 74.32L288.166 57.88H295.366L301.926 111H293.046ZM329.649 111L325.569 89.04L321.569 54.64H313.329V47H326.849L330.649 67.32L335.609 103.32H343.729V111H329.649ZM313.329 111V58H319.209L321.009 88.92L321.689 111H313.329ZM337.849 99.92L335.729 68L335.329 47H343.729V99.92H337.849ZM357.542 111V47H366.182V111H357.542ZM369.942 111V103.32H370.742C372.502 103.32 373.809 102.92 374.662 102.12C375.515 101.293 375.955 100.053 375.982 98.4C376.062 95.1467 376.115 91.9067 376.142 88.68C376.169 85.4267 376.182 82.1867 376.182 78.96C376.182 75.7333 376.169 72.5067 376.142 69.28C376.115 66.0267 376.062 62.7733 375.982 59.52C375.955 57.8933 375.515 56.68 374.662 55.88C373.809 55.08 372.515 54.68 370.782 54.68H369.942V47H370.782C375.609 47 379.102 48.0533 381.262 50.16C383.422 52.24 384.542 55.6933 384.622 60.52C384.702 64.92 384.755 69.0933 384.782 73.04C384.809 76.9867 384.809 80.9467 384.782 84.92C384.755 88.8667 384.702 93.04 384.622 97.44C384.542 102.267 383.422 105.733 381.262 107.84C379.102 109.947 375.595 111 370.742 111H369.942ZM417.361 111L411.441 87.96H410.281V80.32H411.121C412.881 80.32 414.174 79.92 415.001 79.12C415.854 78.2933 416.321 77.0667 416.401 75.44C416.481 73.7333 416.534 71.9867 416.561 70.2C416.587 68.3867 416.587 66.5867 416.561 64.8C416.534 62.9867 416.481 61.2267 416.401 59.52C416.321 57.8933 415.867 56.68 415.041 55.88C414.214 55.08 412.921 54.68 411.161 54.68H410.561V47H411.161C415.961 47 419.427 48 421.561 50C423.721 52 424.881 55.32 425.041 59.96C425.121 61.9067 425.161 63.6933 425.161 65.32C425.187 66.92 425.187 68.5067 425.161 70.08C425.161 71.6267 425.121 73.2667 425.041 75C424.827 80.8133 422.947 84.6 419.401 86.36L426.361 111H417.361ZM398.161 111V47H406.801V111H398.161ZM449.636 111.64C445.503 111.4 442.516 110.253 440.676 108.2C438.836 106.12 437.863 102.867 437.756 98.44C437.703 95.24 437.663 92.0133 437.636 88.76C437.61 85.5067 437.596 82.2533 437.596 79C437.596 75.72 437.61 72.4667 437.636 69.24C437.663 65.9867 437.703 62.7467 437.756 59.52C437.863 55.12 438.836 51.8933 440.676 49.84C442.516 47.76 445.503 46.6 449.636 46.36V53.64C448.57 53.88 447.783 54.36 447.276 55.08C446.77 55.7733 446.49 56.7467 446.436 58C446.33 61.2533 446.25 64.64 446.196 68.16C446.143 71.68 446.116 75.2533 446.116 78.88C446.116 82.5067 446.143 86.1067 446.196 89.68C446.25 93.2267 446.33 96.6533 446.436 99.96C446.49 101.213 446.77 102.2 447.276 102.92C447.783 103.64 448.57 104.12 449.636 104.36V111.64ZM453.356 111.64V104.36C454.423 104.12 455.21 103.64 455.716 102.92C456.223 102.2 456.49 101.213 456.516 99.96C456.623 96.6533 456.703 93.2267 456.756 89.68C456.81 86.1067 456.836 82.5067 456.836 78.88C456.836 75.2533 456.81 71.68 456.756 68.16C456.703 64.64 456.623 61.2533 456.516 58C456.49 56.7467 456.21 55.7733 455.676 55.08C455.17 54.3867 454.396 53.9067 453.356 53.64V46.36C457.463 46.6267 460.423 47.7867 462.236 49.84C464.05 51.8933 465.01 55.12 465.116 59.52C465.223 62.7733 465.29 66.0267 465.316 69.28C465.37 72.5333 465.396 75.7867 465.396 79.04C465.396 82.2933 465.37 85.5467 465.316 88.8C465.29 92.0267 465.223 95.24 465.116 98.44C465.01 102.84 464.05 106.08 462.236 108.16C460.423 110.213 457.463 111.373 453.356 111.64ZM478.695 111V47H487.335V111H478.695ZM501.189 111V47H509.829V111H501.189ZM513.589 111V103.32H514.389C516.149 103.32 517.455 102.92 518.309 102.12C519.162 101.293 519.602 100.053 519.629 98.4C519.709 95.1467 519.762 91.9067 519.789 88.68C519.815 85.4267 519.829 82.1867 519.829 78.96C519.829 75.7333 519.815 72.5067 519.789 69.28C519.762 66.0267 519.709 62.7733 519.629 59.52C519.602 57.8933 519.162 56.68 518.309 55.88C517.455 55.08 516.162 54.68 514.429 54.68H513.589V47H514.429C519.255 47 522.749 48.0533 524.909 50.16C527.069 52.24 528.189 55.6933 528.269 60.52C528.349 64.92 528.402 69.0933 528.429 73.04C528.455 76.9867 528.455 80.9467 528.429 84.92C528.402 88.8667 528.349 93.04 528.269 97.44C528.189 102.267 527.069 105.733 524.909 107.84C522.749 109.947 519.242 111 514.389 111H513.589Z" fill="black"/>
<g clip-path="url(#clip0_38_26)">
<g clip-path="url(#clip1_38_26)">
<g clip-path="url(#clip2_38_26)">
<g clip-path="url(#clip3_38_26)">
<g clip-path="url(#clip4_38_26)">
<g clip-path="url(#clip5_38_26)">
<g clip-path="url(#clip6_38_26)">
<g clip-path="url(#clip7_38_26)">
<path d="M115.362 17.185C115.362 15.7235 114.796 14.3529 113.766 13.3254C111.713 11.2688 108.102 11.2688 106.046 13.3254L96.2603 23.1092C87.3573 15.2177 75.7467 10.8906 63.3861 10.8906C51.3463 10.8906 39.9543 15.0278 31.1326 22.5715L21.8849 13.3254C19.8315 11.2688 16.2208 11.2688 14.1642 13.3254C12.0358 15.4538 12.0358 18.9177 14.1642 21.0461L23.7278 30.6097C18.6364 37.7098 15.9528 45.914 15.9528 54.4245V116.052C15.9528 116.932 16.666 117.647 17.5483 117.647H109.224C110.106 117.647 110.819 116.932 110.819 116.052V54.4229C110.819 46.2012 108.302 38.2315 103.523 31.2894L113.766 21.0461C114.796 20.0186 115.362 18.6465 115.362 17.185ZM111.51 18.7901L100.311 29.9875C99.7529 30.5443 99.6859 31.425 100.153 32.0616C105.042 38.7086 107.628 46.4421 107.628 54.4245V114.456H19.1438V54.4229C19.1438 46.1661 21.8945 38.2124 27.0943 31.4234C27.581 30.7884 27.5219 29.8901 26.9555 29.3253L16.4187 18.7885C15.5347 17.9046 15.5347 16.4638 16.4187 15.5815C17.2691 14.7295 18.7769 14.7295 19.6273 15.5815L29.9344 25.887C30.5359 26.4901 31.5075 26.5092 32.1378 25.938C40.5191 18.2923 51.6159 14.0817 63.3845 14.0817C75.4627 14.0817 86.7654 18.4837 95.2105 26.4757C95.8391 27.0708 96.8235 27.0565 97.4362 26.4454L108.302 15.5815C109.152 14.7295 110.66 14.7295 111.51 15.5815C111.936 16.0075 112.171 16.5771 112.171 17.185C112.171 17.7929 111.936 18.3641 111.51 18.7901Z" fill="black"/>
<path d="M82.0824 50.1182C85.519 50.1182 88.3049 47.3323 88.3049 43.8956C88.3049 40.459 85.519 37.6731 82.0824 37.6731C78.6458 37.6731 75.8599 40.459 75.8599 43.8956C75.8599 47.3323 78.6458 50.1182 82.0824 50.1182Z" fill="black"/>
<path d="M44.6913 50.1182C48.1279 50.1182 50.9138 47.3323 50.9138 43.8956C50.9138 40.459 48.1279 37.6731 44.6913 37.6731C41.2547 37.6731 38.4688 40.459 38.4688 43.8956C38.4688 47.3323 41.2547 50.1182 44.6913 50.1182Z" fill="black"/>
</g>
</g>
</g>
</g>
</g>
</g>
</g>
</g>
<defs>
<clipPath id="clip0_38_26">
<rect width="103" height="106.219" fill="white" transform="translate(12.4648 11.1595)"/>
</clipPath>
<clipPath id="clip1_38_26">
<rect width="102.794" height="106.757" fill="white" transform="translate(12.5679 10.8906)"/>
</clipPath>
<clipPath id="clip2_38_26">
<rect width="102.794" height="106.757" fill="white" transform="translate(12.5679 10.8906)"/>
</clipPath>
<clipPath id="clip3_38_26">
<rect width="102.794" height="106.757" fill="white" transform="translate(12.5679 10.8906)"/>
</clipPath>
<clipPath id="clip4_38_26">
<rect width="102.794" height="106.757" fill="white" transform="translate(12.5679 10.8906)"/>
</clipPath>
<clipPath id="clip5_38_26">
<rect width="102.794" height="106.757" fill="white" transform="translate(12.5679 10.8906)"/>
</clipPath>
<clipPath id="clip6_38_26">
<rect width="102.794" height="106.757" fill="white" transform="translate(12.5679 10.8906)"/>
</clipPath>
<clipPath id="clip7_38_26">
<rect width="102.794" height="106.757" fill="white" transform="translate(12.5679 10.8906)"/>
</clipPath>
</defs>
</svg>
